<svg width="128" height="128" viewBox="0 0 128 128" fill="none" xmlns="http://www.w3.org/2000/svg">
  <!-- Background Circle -->
  <circle cx="64" cy="64" r="60" fill="#1e3a8a" />
  <circle cx="64" cy="64" r="52" fill="white" />
  <circle cx="64" cy="64" r="48" fill="#1e3a8a" />
  
  <!-- Wrench Symbol -->
  <path d="M86.5 41.5C83.5 38.5 79.5 37 75 37C65.5 37 58 44.5 58 54C58 55.5 58.2 57 58.6 58.4L40 77C38.1 78.9 38.1 82.1 40 84C41.9 85.9 45.1 85.9 47 84L65.6 65.4C67 65.8 68.5 66 70 66C79.5 66 87 58.5 87 49C87 44.5 85.5 40.5 82.5 37.5L72 48L66 42L86.5 41.5Z" fill="white"/>
  
  <!-- Water Drop -->
  <path d="M52 82C52 73.5 44 66 44 66C44 66 36 73.5 36 82C36 88.5 39.5 92 44 92C48.5 92 52 88.5 52 82Z" fill="#0ea5e9"/>
</svg> 